<?xml version="1.0" encoding="utf-8" standalone="no"?>
<!DOCTYPE svg PUBLIC "-//W3C//DTD SVG 1.1//EN"
  "http://www.w3.org/Graphics/SVG/1.1/DTD/svg11.dtd">
<svg xmlns:xlink="http://www.w3.org/1999/xlink" width="460.8pt" height="345.6pt" viewBox="0 0 460.8 345.6" xmlns="http://www.w3.org/2000/svg" version="1.1">
 <metadata>
  <rdf:RDF xmlns:dc="http://purl.org/dc/elements/1.1/" xmlns:cc="http://creativecommons.org/ns#" xmlns:rdf="http://www.w3.org/1999/02/22-rdf-syntax-ns#">
   <cc:Work>
    <dc:type rdf:resource="http://purl.org/dc/dcmitype/StillImage"/>
    <dc:date>2024-04-13T19:50:28.894518</dc:date>
    <dc:format>image/svg+xml</dc:format>
    <dc:creator>
     <cc:Agent>
      <dc:title>Matplotlib v3.7.1, https://matplotlib.org/</dc:title>
     </cc:Agent>
    </dc:creator>
   </cc:Work>
  </rdf:RDF>
 </metadata>
 <defs>
  <style type="text/css">*{stroke-linejoin: round; stroke-linecap: butt}</style>
 </defs>
 <g id="figure_1">
  <g id="patch_1">
   <path d="M 0 345.6 
L 460.8 345.6 
L 460.8 0 
L 0 0 
z
" style="fill: #ffffff"/>
  </g>
  <g id="axes_1">
   <g id="patch_2">
    <path d="M 130.107199 58.169772 
C 114.824023 58.169772 99.705469 61.337842 85.708022 67.473552 
C 71.710574 73.609262 59.135779 82.580431 48.779189 93.819493 
C 38.422599 105.058554 30.507324 118.323386 25.534129 132.774781 
C 20.560935 147.226175 18.636958 162.552807 19.88392 177.785028 
L 130.107199 168.761772 
z
" style="fill: #1f77b4"/>
   </g>
   <g id="patch_3">
    <path d="M 28.016721 185.279256 
C 29.225497 200.045029 33.389128 214.418473 40.259808 227.544132 
C 47.130489 240.669792 56.569153 252.281998 68.014046 261.689634 
C 79.458938 271.09727 92.678411 278.109921 106.885686 282.310219 
C 121.092961 286.510518 136.000479 287.813448 150.720997 286.141464 
L 138.24 176.256 
z
" style="fill: #ff7f0e"/>
   </g>
   <g id="patch_4">
    <path d="M 150.720997 286.141464 
C 168.294574 284.145424 185.135579 277.962489 199.825973 268.113272 
C 214.516368 258.264054 226.631926 245.032978 235.152499 229.534119 
L 138.24 176.256 
z
" style="fill: #2ca02c"/>
   </g>
   <g id="patch_5">
    <path d="M 235.152499 229.534119 
C 238.726238 223.033516 241.636864 216.189801 243.840374 209.10644 
C 246.043885 202.023079 247.529118 194.73595 248.273621 187.35522 
L 138.24 176.256 
z
" style="fill: #d62728"/>
   </g>
   <g id="patch_6">
    <path d="M 248.273621 187.35522 
C 248.680531 183.321262 248.865299 179.267977 248.827088 175.213728 
C 248.788878 171.159479 248.527745 167.110396 248.044875 163.084824 
L 138.24 176.256 
z
" style="fill: #9467bd"/>
   </g>
   <g id="patch_7">
    <path d="M 248.044875 163.084824 
C 247.631014 159.634564 247.054763 156.205727 246.31804 152.809727 
C 245.581317 149.413727 244.684942 146.054337 243.631897 142.74274 
L 138.24 176.256 
z
" style="fill: #8c564b"/>
   </g>
   <g id="patch_8">
    <path d="M 243.631897 142.74274 
C 236.519739 120.376554 222.46911 100.844617 203.525119 86.98986 
C 184.581129 73.135103 161.709762 65.664003 138.240014 65.664 
L 138.24 176.256 
z
" style="fill: #e377c2"/>
   </g>
   <g id="matplotlib.axis_1"/>
   <g id="matplotlib.axis_2"/>
   <g id="text_1">
    <!-- 26.3% -->
    <g transform="translate(8.879201 89.08464) scale(0.1 -0.1)">
     <defs>
      <path id="DejaVuSans-32" d="M 1228 531 
L 3431 531 
L 3431 0 
L 469 0 
L 469 531 
Q 828 903 1448 1529 
Q 2069 2156 2228 2338 
Q 2531 2678 2651 2914 
Q 2772 3150 2772 3378 
Q 2772 3750 2511 3984 
Q 2250 4219 1831 4219 
Q 1534 4219 1204 4116 
Q 875 4013 500 3803 
L 500 4441 
Q 881 4594 1212 4672 
Q 1544 4750 1819 4750 
Q 2544 4750 2975 4387 
Q 3406 4025 3406 3419 
Q 3406 3131 3298 2873 
Q 3191 2616 2906 2266 
Q 2828 2175 2409 1742 
Q 1991 1309 1228 531 
z
" transform="scale(0.015625)"/>
      <path id="DejaVuSans-36" d="M 2113 2584 
Q 1688 2584 1439 2293 
Q 1191 2003 1191 1497 
Q 1191 994 1439 701 
Q 1688 409 2113 409 
Q 2538 409 2786 701 
Q 3034 994 3034 1497 
Q 3034 2003 2786 2293 
Q 2538 2584 2113 2584 
z
M 3366 4563 
L 3366 3988 
Q 3128 4100 2886 4159 
Q 2644 4219 2406 4219 
Q 1781 4219 1451 3797 
Q 1122 3375 1075 2522 
Q 1259 2794 1537 2939 
Q 1816 3084 2150 3084 
Q 2853 3084 3261 2657 
Q 3669 2231 3669 1497 
Q 3669 778 3244 343 
Q 2819 -91 2113 -91 
Q 1303 -91 875 529 
Q 447 1150 447 2328 
Q 447 3434 972 4092 
Q 1497 4750 2381 4750 
Q 2619 4750 2861 4703 
Q 3103 4656 3366 4563 
z
" transform="scale(0.015625)"/>
      <path id="DejaVuSans-2e" d="M 684 794 
L 1344 794 
L 1344 0 
L 684 0 
L 684 794 
z
" transform="scale(0.015625)"/>
      <path id="DejaVuSans-33" d="M 2597 2516 
Q 3050 2419 3304 2112 
Q 3559 1806 3559 1356 
Q 3559 666 3084 287 
Q 2609 -91 1734 -91 
Q 1441 -91 1130 -33 
Q 819 25 488 141 
L 488 750 
Q 750 597 1062 519 
Q 1375 441 1716 441 
Q 2309 441 2620 675 
Q 2931 909 2931 1356 
Q 2931 1769 2642 2001 
Q 2353 2234 1838 2234 
L 1294 2234 
L 1294 2753 
L 1863 2753 
Q 2328 2753 2575 2939 
Q 2822 3125 2822 3475 
Q 2822 3834 2567 4026 
Q 2313 4219 1838 4219 
Q 1578 4219 1281 4162 
Q 984 4106 628 3988 
L 628 4550 
Q 988 4650 1302 4700 
Q 1616 4750 1894 4750 
Q 2613 4750 3031 4423 
Q 3450 4097 3450 3541 
Q 3450 3153 3228 2886 
Q 3006 2619 2597 2516 
z
" transform="scale(0.015625)"/>
      <path id="DejaVuSans-25" d="M 4653 2053 
Q 4381 2053 4226 1822 
Q 4072 1591 4072 1178 
Q 4072 772 4226 539 
Q 4381 306 4653 306 
Q 4919 306 5073 539 
Q 5228 772 5228 1178 
Q 5228 1588 5073 1820 
Q 4919 2053 4653 2053 
z
M 4653 2450 
Q 5147 2450 5437 2106 
Q 5728 1763 5728 1178 
Q 5728 594 5436 251 
Q 5144 -91 4653 -91 
Q 4153 -91 3862 251 
Q 3572 594 3572 1178 
Q 3572 1766 3864 2108 
Q 4156 2450 4653 2450 
z
M 1428 4353 
Q 1159 4353 1004 4120 
Q 850 3888 850 3481 
Q 850 3069 1003 2837 
Q 1156 2606 1428 2606 
Q 1700 2606 1854 2837 
Q 2009 3069 2009 3481 
Q 2009 3884 1853 4118 
Q 1697 4353 1428 4353 
z
M 4250 4750 
L 4750 4750 
L 1831 -91 
L 1331 -91 
L 4250 4750 
z
M 1428 4750 
Q 1922 4750 2215 4408 
Q 2509 4066 2509 3481 
Q 2509 2891 2217 2550 
Q 1925 2209 1428 2209 
Q 931 2209 642 2551 
Q 353 2894 353 3481 
Q 353 4063 643 4406 
Q 934 4750 1428 4750 
z
" transform="scale(0.015625)"/>
     </defs>
     <use xlink:href="#DejaVuSans-32"/>
     <use xlink:href="#DejaVuSans-36" x="63.623047"/>
     <use xlink:href="#DejaVuSans-2e" x="127.246094"/>
     <use xlink:href="#DejaVuSans-33" x="159.033203"/>
     <use xlink:href="#DejaVuSans-25" x="222.65625"/>
    </g>
   </g>
   <g id="text_2">
    <!-- 25.5% -->
    <g transform="translate(29.224263 272.992372) scale(0.1 -0.1)">
     <defs>
      <path id="DejaVuSans-35" d="M 691 4666 
L 3169 4666 
L 3169 4134 
L 1269 4134 
L 1269 2991 
Q 1406 3038 1543 3061 
Q 1681 3084 1819 3084 
Q 2600 3084 3056 2656 
Q 3513 2228 3513 1497 
Q 3513 744 3044 326 
Q 2575 -91 1722 -91 
Q 1428 -91 1123 -41 
Q 819 9 494 109 
L 494 744 
Q 775 591 1075 516 
Q 1375 441 1709 441 
Q 2250 441 2565 725 
Q 2881 1009 2881 1497 
Q 2881 1984 2565 2268 
Q 2250 2553 1709 2553 
Q 1456 2553 1204 2497 
Q 953 2441 691 2322 
L 691 4666 
z
" transform="scale(0.015625)"/>
     </defs>
     <use xlink:href="#DejaVuSans-32"/>
     <use xlink:href="#DejaVuSans-35" x="63.623047"/>
     <use xlink:href="#DejaVuSans-2e" x="127.246094"/>
     <use xlink:href="#DejaVuSans-35" x="159.033203"/>
     <use xlink:href="#DejaVuSans-25" x="222.65625"/>
    </g>
   </g>
   <g id="text_3">
    <!-- 15.2% -->
    <g transform="translate(205.984571 280.058374) scale(0.1 -0.1)">
     <defs>
      <path id="DejaVuSans-31" d="M 794 531 
L 1825 531 
L 1825 4091 
L 703 3866 
L 703 4441 
L 1819 4666 
L 2450 4666 
L 2450 531 
L 3481 531 
L 3481 0 
L 794 0 
L 794 531 
z
" transform="scale(0.015625)"/>
     </defs>
     <use xlink:href="#DejaVuSans-31"/>
     <use xlink:href="#DejaVuSans-35" x="63.623047"/>
     <use xlink:href="#DejaVuSans-2e" x="127.246094"/>
     <use xlink:href="#DejaVuSans-32" x="159.033203"/>
     <use xlink:href="#DejaVuSans-25" x="222.65625"/>
    </g>
   </g>
   <g id="text_4">
    <!-- 6.4% -->
    <g transform="translate(254.400412 215.150859) scale(0.1 -0.1)">
     <defs>
      <path id="DejaVuSans-34" d="M 2419 4116 
L 825 1625 
L 2419 1625 
L 2419 4116 
z
M 2253 4666 
L 3047 4666 
L 3047 1625 
L 3713 1625 
L 3713 1100 
L 3047 1100 
L 3047 0 
L 2419 0 
L 2419 1100 
L 313 1100 
L 313 1709 
L 2253 4666 
z
" transform="scale(0.015625)"/>
     </defs>
     <use xlink:href="#DejaVuSans-36"/>
     <use xlink:href="#DejaVuSans-2e" x="63.623047"/>
     <use xlink:href="#DejaVuSans-34" x="95.410156"/>
     <use xlink:href="#DejaVuSans-25" x="159.033203"/>
    </g>
   </g>
   <g id="text_5">
    <!-- 3.5% -->
    <g transform="translate(259.885797 177.868875) scale(0.1 -0.1)">
     <use xlink:href="#DejaVuSans-33"/>
     <use xlink:href="#DejaVuSans-2e" x="63.623047"/>
     <use xlink:href="#DejaVuSans-35" x="95.410156"/>
     <use xlink:href="#DejaVuSans-25" x="159.033203"/>
    </g>
   </g>
   <g id="text_6">
    <!-- 3.0% -->
    <g transform="translate(257.125844 153.224474) scale(0.1 -0.1)">
     <defs>
      <path id="DejaVuSans-30" d="M 2034 4250 
Q 1547 4250 1301 3770 
Q 1056 3291 1056 2328 
Q 1056 1369 1301 889 
Q 1547 409 2034 409 
Q 2525 409 2770 889 
Q 3016 1369 3016 2328 
Q 3016 3291 2770 3770 
Q 2525 4250 2034 4250 
z
M 2034 4750 
Q 2819 4750 3233 4129 
Q 3647 3509 3647 2328 
Q 3647 1150 3233 529 
Q 2819 -91 2034 -91 
Q 1250 -91 836 529 
Q 422 1150 422 2328 
Q 422 3509 836 4129 
Q 1250 4750 2034 4750 
z
" transform="scale(0.015625)"/>
     </defs>
     <use xlink:href="#DejaVuSans-33"/>
     <use xlink:href="#DejaVuSans-2e" x="63.623047"/>
     <use xlink:href="#DejaVuSans-30" x="95.410156"/>
     <use xlink:href="#DejaVuSans-25" x="159.033203"/>
    </g>
   </g>
   <g id="text_7">
    <!-- 20.1% -->
    <g transform="translate(210.053631 80.822621) scale(0.1 -0.1)">
     <use xlink:href="#DejaVuSans-32"/>
     <use xlink:href="#DejaVuSans-30" x="63.623047"/>
     <use xlink:href="#DejaVuSans-2e" x="127.246094"/>
     <use xlink:href="#DejaVuSans-31" x="159.033203"/>
     <use xlink:href="#DejaVuSans-25" x="222.65625"/>
    </g>
   </g>
   <g id="legend_1">
    <g id="patch_9">
     <path d="M 315.935094 225.673437 
L 448.992906 225.673437 
Q 450.992906 225.673437 450.992906 223.673437 
L 450.992906 121.926562 
Q 450.992906 119.926562 448.992906 119.926562 
L 315.935094 119.926562 
Q 313.935094 119.926562 313.935094 121.926562 
L 313.935094 223.673437 
Q 313.935094 225.673437 315.935094 225.673437 
z
" style="fill: #ffffff; opacity: 0.8; stroke: #cccccc; stroke-linejoin: miter"/>
    </g>
    <g id="patch_10">
     <path d="M 317.935094 131.525 
L 337.935094 131.525 
L 337.935094 124.525 
L 317.935094 124.525 
z
" style="fill: #1f77b4"/>
    </g>
    <g id="text_8">
     <!-- event 1 : 26.3% -->
     <g transform="translate(345.935094 131.525) scale(0.1 -0.1)">
      <defs>
       <path id="DejaVuSans-65" d="M 3597 1894 
L 3597 1613 
L 953 1613 
Q 991 1019 1311 708 
Q 1631 397 2203 397 
Q 2534 397 2845 478 
Q 3156 559 3463 722 
L 3463 178 
Q 3153 47 2828 -22 
Q 2503 -91 2169 -91 
Q 1331 -91 842 396 
Q 353 884 353 1716 
Q 353 2575 817 3079 
Q 1281 3584 2069 3584 
Q 2775 3584 3186 3129 
Q 3597 2675 3597 1894 
z
M 3022 2063 
Q 3016 2534 2758 2815 
Q 2500 3097 2075 3097 
Q 1594 3097 1305 2825 
Q 1016 2553 972 2059 
L 3022 2063 
z
" transform="scale(0.015625)"/>
       <path id="DejaVuSans-76" d="M 191 3500 
L 800 3500 
L 1894 563 
L 2988 3500 
L 3597 3500 
L 2284 0 
L 1503 0 
L 191 3500 
z
" transform="scale(0.015625)"/>
       <path id="DejaVuSans-6e" d="M 3513 2113 
L 3513 0 
L 2938 0 
L 2938 2094 
Q 2938 2591 2744 2837 
Q 2550 3084 2163 3084 
Q 1697 3084 1428 2787 
Q 1159 2491 1159 1978 
L 1159 0 
L 581 0 
L 581 3500 
L 1159 3500 
L 1159 2956 
Q 1366 3272 1645 3428 
Q 1925 3584 2291 3584 
Q 2894 3584 3203 3211 
Q 3513 2838 3513 2113 
z
" transform="scale(0.015625)"/>
       <path id="DejaVuSans-74" d="M 1172 4494 
L 1172 3500 
L 2356 3500 
L 2356 3053 
L 1172 3053 
L 1172 1153 
Q 1172 725 1289 603 
Q 1406 481 1766 481 
L 2356 481 
L 2356 0 
L 1766 0 
Q 1100 0 847 248 
Q 594 497 594 1153 
L 594 3053 
L 172 3053 
L 172 3500 
L 594 3500 
L 594 4494 
L 1172 4494 
z
" transform="scale(0.015625)"/>
       <path id="DejaVuSans-20" transform="scale(0.015625)"/>
       <path id="DejaVuSans-3a" d="M 750 794 
L 1409 794 
L 1409 0 
L 750 0 
L 750 794 
z
M 750 3309 
L 1409 3309 
L 1409 2516 
L 750 2516 
L 750 3309 
z
" transform="scale(0.015625)"/>
      </defs>
      <use xlink:href="#DejaVuSans-65"/>
      <use xlink:href="#DejaVuSans-76" x="61.523438"/>
      <use xlink:href="#DejaVuSans-65" x="120.703125"/>
      <use xlink:href="#DejaVuSans-6e" x="182.226562"/>
      <use xlink:href="#DejaVuSans-74" x="245.605469"/>
      <use xlink:href="#DejaVuSans-20" x="284.814453"/>
      <use xlink:href="#DejaVuSans-31" x="316.601562"/>
      <use xlink:href="#DejaVuSans-20" x="380.224609"/>
      <use xlink:href="#DejaVuSans-3a" x="412.011719"/>
      <use xlink:href="#DejaVuSans-20" x="445.703125"/>
      <use xlink:href="#DejaVuSans-32" x="477.490234"/>
      <use xlink:href="#DejaVuSans-36" x="541.113281"/>
      <use xlink:href="#DejaVuSans-2e" x="604.736328"/>
      <use xlink:href="#DejaVuSans-33" x="636.523438"/>
      <use xlink:href="#DejaVuSans-25" x="700.146484"/>
     </g>
    </g>
    <g id="patch_11">
     <path d="M 317.935094 146.203125 
L 337.935094 146.203125 
L 337.935094 139.203125 
L 317.935094 139.203125 
z
" style="fill: #ff7f0e"/>
    </g>
    <g id="text_9">
     <!-- event 2 : 25.5% -->
     <g transform="translate(345.935094 146.203125) scale(0.1 -0.1)">
      <use xlink:href="#DejaVuSans-65"/>
      <use xlink:href="#DejaVuSans-76" x="61.523438"/>
      <use xlink:href="#DejaVuSans-65" x="120.703125"/>
      <use xlink:href="#DejaVuSans-6e" x="182.226562"/>
      <use xlink:href="#DejaVuSans-74" x="245.605469"/>
      <use xlink:href="#DejaVuSans-20" x="284.814453"/>
      <use xlink:href="#DejaVuSans-32" x="316.601562"/>
      <use xlink:href="#DejaVuSans-20" x="380.224609"/>
      <use xlink:href="#DejaVuSans-3a" x="412.011719"/>
      <use xlink:href="#DejaVuSans-20" x="445.703125"/>
      <use xlink:href="#DejaVuSans-32" x="477.490234"/>
      <use xlink:href="#DejaVuSans-35" x="541.113281"/>
      <use xlink:href="#DejaVuSans-2e" x="604.736328"/>
      <use xlink:href="#DejaVuSans-35" x="636.523438"/>
      <use xlink:href="#DejaVuSans-25" x="700.146484"/>
     </g>
    </g>
    <g id="patch_12">
     <path d="M 317.935094 160.88125 
L 337.935094 160.88125 
L 337.935094 153.88125 
L 317.935094 153.88125 
z
" style="fill: #2ca02c"/>
    </g>
    <g id="text_10">
     <!-- event 3 : 15.2% -->
     <g transform="translate(345.935094 160.88125) scale(0.1 -0.1)">
      <use xlink:href="#DejaVuSans-65"/>
      <use xlink:href="#DejaVuSans-76" x="61.523438"/>
      <use xlink:href="#DejaVuSans-65" x="120.703125"/>
      <use xlink:href="#DejaVuSans-6e" x="182.226562"/>
      <use xlink:href="#DejaVuSans-74" x="245.605469"/>
      <use xlink:href="#DejaVuSans-20" x="284.814453"/>
      <use xlink:href="#DejaVuSans-33" x="316.601562"/>
      <use xlink:href="#DejaVuSans-20" x="380.224609"/>
      <use xlink:href="#DejaVuSans-3a" x="412.011719"/>
      <use xlink:href="#DejaVuSans-20" x="445.703125"/>
      <use xlink:href="#DejaVuSans-31" x="477.490234"/>
      <use xlink:href="#DejaVuSans-35" x="541.113281"/>
      <use xlink:href="#DejaVuSans-2e" x="604.736328"/>
      <use xlink:href="#DejaVuSans-32" x="636.523438"/>
      <use xlink:href="#DejaVuSans-25" x="700.146484"/>
     </g>
    </g>
    <g id="patch_13">
     <path d="M 317.935094 175.559375 
L 337.935094 175.559375 
L 337.935094 168.559375 
L 317.935094 168.559375 
z
" style="fill: #d62728"/>
    </g>
    <g id="text_11">
     <!-- event 4 : 6.4% -->
     <g transform="translate(345.935094 175.559375) scale(0.1 -0.1)">
      <use xlink:href="#DejaVuSans-65"/>
      <use xlink:href="#DejaVuSans-76" x="61.523438"/>
      <use xlink:href="#DejaVuSans-65" x="120.703125"/>
      <use xlink:href="#DejaVuSans-6e" x="182.226562"/>
      <use xlink:href="#DejaVuSans-74" x="245.605469"/>
      <use xlink:href="#DejaVuSans-20" x="284.814453"/>
      <use xlink:href="#DejaVuSans-34" x="316.601562"/>
      <use xlink:href="#DejaVuSans-20" x="380.224609"/>
      <use xlink:href="#DejaVuSans-3a" x="412.011719"/>
      <use xlink:href="#DejaVuSans-20" x="445.703125"/>
      <use xlink:href="#DejaVuSans-36" x="477.490234"/>
      <use xlink:href="#DejaVuSans-2e" x="541.113281"/>
      <use xlink:href="#DejaVuSans-34" x="572.900391"/>
      <use xlink:href="#DejaVuSans-25" x="636.523438"/>
     </g>
    </g>
    <g id="patch_14">
     <path d="M 317.935094 190.2375 
L 337.935094 190.2375 
L 337.935094 183.2375 
L 317.935094 183.2375 
z
" style="fill: #9467bd"/>
    </g>
    <g id="text_12">
     <!-- event 5 : 3.5% -->
     <g transform="translate(345.935094 190.2375) scale(0.1 -0.1)">
      <use xlink:href="#DejaVuSans-65"/>
      <use xlink:href="#DejaVuSans-76" x="61.523438"/>
      <use xlink:href="#DejaVuSans-65" x="120.703125"/>
      <use xlink:href="#DejaVuSans-6e" x="182.226562"/>
      <use xlink:href="#DejaVuSans-74" x="245.605469"/>
      <use xlink:href="#DejaVuSans-20" x="284.814453"/>
      <use xlink:href="#DejaVuSans-35" x="316.601562"/>
      <use xlink:href="#DejaVuSans-20" x="380.224609"/>
      <use xlink:href="#DejaVuSans-3a" x="412.011719"/>
      <use xlink:href="#DejaVuSans-20" x="445.703125"/>
      <use xlink:href="#DejaVuSans-33" x="477.490234"/>
      <use xlink:href="#DejaVuSans-2e" x="541.113281"/>
      <use xlink:href="#DejaVuSans-35" x="572.900391"/>
      <use xlink:href="#DejaVuSans-25" x="636.523438"/>
     </g>
    </g>
    <g id="patch_15">
     <path d="M 317.935094 204.915625 
L 337.935094 204.915625 
L 337.935094 197.915625 
L 317.935094 197.915625 
z
" style="fill: #8c564b"/>
    </g>
    <g id="text_13">
     <!-- event 6 : 3.0% -->
     <g transform="translate(345.935094 204.915625) scale(0.1 -0.1)">
      <use xlink:href="#DejaVuSans-65"/>
      <use xlink:href="#DejaVuSans-76" x="61.523438"/>
      <use xlink:href="#DejaVuSans-65" x="120.703125"/>
      <use xlink:href="#DejaVuSans-6e" x="182.226562"/>
      <use xlink:href="#DejaVuSans-74" x="245.605469"/>
      <use xlink:href="#DejaVuSans-20" x="284.814453"/>
      <use xlink:href="#DejaVuSans-36" x="316.601562"/>
      <use xlink:href="#DejaVuSans-20" x="380.224609"/>
      <use xlink:href="#DejaVuSans-3a" x="412.011719"/>
      <use xlink:href="#DejaVuSans-20" x="445.703125"/>
      <use xlink:href="#DejaVuSans-33" x="477.490234"/>
      <use xlink:href="#DejaVuSans-2e" x="541.113281"/>
      <use xlink:href="#DejaVuSans-30" x="572.900391"/>
      <use xlink:href="#DejaVuSans-25" x="636.523438"/>
     </g>
    </g>
    <g id="patch_16">
     <path d="M 317.935094 219.59375 
L 337.935094 219.59375 
L 337.935094 212.59375 
L 317.935094 212.59375 
z
" style="fill: #e377c2"/>
    </g>
    <g id="text_14">
     <!-- events 7-65 : 20.1% -->
     <g transform="translate(345.935094 219.59375) scale(0.1 -0.1)">
      <defs>
       <path id="DejaVuSans-73" d="M 2834 3397 
L 2834 2853 
Q 2591 2978 2328 3040 
Q 2066 3103 1784 3103 
Q 1356 3103 1142 2972 
Q 928 2841 928 2578 
Q 928 2378 1081 2264 
Q 1234 2150 1697 2047 
L 1894 2003 
Q 2506 1872 2764 1633 
Q 3022 1394 3022 966 
Q 3022 478 2636 193 
Q 2250 -91 1575 -91 
Q 1294 -91 989 -36 
Q 684 19 347 128 
L 347 722 
Q 666 556 975 473 
Q 1284 391 1588 391 
Q 1994 391 2212 530 
Q 2431 669 2431 922 
Q 2431 1156 2273 1281 
Q 2116 1406 1581 1522 
L 1381 1569 
Q 847 1681 609 1914 
Q 372 2147 372 2553 
Q 372 3047 722 3315 
Q 1072 3584 1716 3584 
Q 2034 3584 2315 3537 
Q 2597 3491 2834 3397 
z
" transform="scale(0.015625)"/>
       <path id="DejaVuSans-37" d="M 525 4666 
L 3525 4666 
L 3525 4397 
L 1831 0 
L 1172 0 
L 2766 4134 
L 525 4134 
L 525 4666 
z
" transform="scale(0.015625)"/>
       <path id="DejaVuSans-2d" d="M 313 2009 
L 1997 2009 
L 1997 1497 
L 313 1497 
L 313 2009 
z
" transform="scale(0.015625)"/>
      </defs>
      <use xlink:href="#DejaVuSans-65"/>
      <use xlink:href="#DejaVuSans-76" x="61.523438"/>
      <use xlink:href="#DejaVuSans-65" x="120.703125"/>
      <use xlink:href="#DejaVuSans-6e" x="182.226562"/>
      <use xlink:href="#DejaVuSans-74" x="245.605469"/>
      <use xlink:href="#DejaVuSans-73" x="284.814453"/>
      <use xlink:href="#DejaVuSans-20" x="336.914062"/>
      <use xlink:href="#DejaVuSans-37" x="368.701172"/>
      <use xlink:href="#DejaVuSans-2d" x="432.324219"/>
      <use xlink:href="#DejaVuSans-36" x="468.408203"/>
      <use xlink:href="#DejaVuSans-35" x="532.03125"/>
      <use xlink:href="#DejaVuSans-20" x="595.654297"/>
      <use xlink:href="#DejaVuSans-3a" x="627.441406"/>
      <use xlink:href="#DejaVuSans-20" x="661.132812"/>
      <use xlink:href="#DejaVuSans-32" x="692.919922"/>
      <use xlink:href="#DejaVuSans-30" x="756.542969"/>
      <use xlink:href="#DejaVuSans-2e" x="820.166016"/>
      <use xlink:href="#DejaVuSans-31" x="851.953125"/>
      <use xlink:href="#DejaVuSans-25" x="915.576172"/>
     </g>
    </g>
   </g>
  </g>
 </g>
</svg>
